<?xml version="1.0" standalone="no"?>
<!DOCTYPE svg PUBLIC "-//W3C//DTD SVG 1.1//EN" "http://www.w3.org/Graphics/SVG/1.1/DTD/svg11.dtd">
<svg xmlns="http://www.w3.org/2000/svg" version="1.1" width="2108" height="1917" viewBox="0 0 2108 1917">
<path d="M0 0 C0.79664063 0.73605469 1.59328125 1.47210937 2.4140625 2.23046875 C4.03060812 3.71800666 5.67218097 5.17874195 7.3359375 6.61328125 C28.96962495 25.35138284 45.81296067 53.82581868 49.8125 82.4375 C50.04844392 86.2351537 50.04792145 90.00893331 50 93.8125 C50.00008057 94.82256104 50.00016113 95.83262207 50.00024414 96.87329102 C49.97253264 102.16277642 49.63109456 107.14850725 48.75 112.375 C48.41187719 115.71275521 48.42396752 116.89680825 50.3984375 119.64453125 C52.75161244 121.80367246 55.19450807 123.61027983 57.8125 125.4375 C59.4654767 126.76196713 61.11134051 128.09535984 62.75 129.4375 C63.57757812 130.08589844 64.40515625 130.73429688 65.2578125 131.40234375 C67.03250323 132.81612643 68.77564017 134.27006869 70.4921875 135.75390625 C71.79542969 136.86572266 71.79542969 136.86572266 73.125 138 C73.90488281 138.68191406 74.68476562 139.36382813 75.48828125 140.06640625 C77.73330524 141.68355236 77.73330524 141.68355236 80.3828125 141.27734375 C85.96484487 139.34786311 89.6374391 136.48908781 92.25 131.125 C94.94688219 125.02034199 93.90504697 118.45315886 92.99829102 112.04589844 C89.82171594 89.21847598 98.21823894 70.16276241 111.60644531 52.16699219 C132.54336444 24.96282214 161.40222392 6.61334333 193 -5.9375 C193.68603302 -6.21285583 194.37206604 -6.48821167 195.07888794 -6.77191162 C209.18492258 -12.43296737 223.43926921 -17.61963428 237.8125 -22.5625 C239.04387695 -22.99240234 240.27525391 -23.42230469 241.54394531 -23.86523438 C265.33320122 -32.17058913 289.46798851 -39.08155793 313.8125 -45.5625 C314.52968201 -45.75408691 315.24686401 -45.94567383 315.98577881 -46.14306641 C320.14939188 -47.25260032 324.32029108 -48.32783044 328.5 -49.375 C329.45970703 -49.62354736 330.41941406 -49.87209473 331.40820312 -50.12817383 C336.9295125 -51.45642289 341.23901318 -51.82582368 346.8125 -50.5625 C349.37112835 -48.00387165 350.68502105 -46.23606986 350.96484375 -42.5625 C350.60585559 -37.70235266 349.19044801 -35.17126706 345.8125 -31.5625 C343.32470002 -30.27492743 341.0181024 -29.23320221 338.41796875 -28.25 C337.32151535 -27.81458641 337.32151535 -27.81458641 336.20291138 -27.37037659 C334.62872206 -26.74705773 333.05191201 -26.13032488 331.47280884 -25.51956177 C328.96147966 -24.54759131 326.45794148 -23.55764834 323.95581055 -22.56225586 C320.53848738 -21.20322756 317.11922401 -19.84930285 313.69824219 -18.49951172 C273.33850214 -2.53753708 234.34924077 16.17855098 196.70214844 37.7890625 C193.62621947 39.54376615 190.53757749 41.27425915 187.4453125 43 C186.39827148 43.58579834 185.35123047 44.17159668 184.27246094 44.77514648 C182.26964018 45.89495723 180.26517355 47.01183121 178.25878906 48.12524414 C170.4176455 52.07517122 170.4176455 52.07517122 164.8125 58.4375 C164.32139817 62.74595974 164.32139817 62.74595974 166.375 66.375 C169.85705321 67.89281807 172.12231885 67.20472955 175.8125 66.4375 C178.95045426 65.00393799 178.95045426 65.00393799 181.99609375 63.078125 C182.56470627 62.73743484 183.13331879 62.39674469 183.71916199 62.04573059 C184.93650244 61.31523968 186.1508425 60.57972893 187.36236572 59.83963013 C190.58698223 57.87146401 193.8355867 55.94359035 197.08203125 54.01171875 C197.73604919 53.62136948 198.39006714 53.2310202 199.06390381 52.82884216 C208.79953476 47.03690648 218.80827756 41.74672614 228.8125 36.4375 C230.36479682 35.60586712 231.91689198 34.77385767 233.46875 33.94140625 C238.22894409 31.39892948 243.01503569 28.9088438 247.8125 26.4375 C248.8761377 25.88868164 249.93977539 25.33986328 251.03564453 24.77441406 C340.17137782 -21.01849371 340.17137782 -21.01849371 354.8125 -16.5625 C358.2533124 -14.23762676 358.76245734 -12.76934298 359.75 -8.6875 C360.33414678 -4.62315481 358.86683416 -2.03704916 356.8125 1.4375 C354.56689453 3.05029297 354.56689453 3.05029297 351.8203125 4.3046875 C350.7468457 4.8006543 349.67337891 5.29662109 348.56738281 5.80761719 C347.31716982 6.35415885 346.06544133 6.89724234 344.8125 7.4375 C344.12087769 7.73853638 343.42925537 8.03957275 342.7166748 8.34973145 C337.92587888 10.4269318 333.11510738 12.45462693 328.29779053 14.46942139 C288.07325765 31.31374433 249.58923155 50.61683089 211.93505859 72.61669922 C208.92732417 74.37054467 205.91133657 76.10947672 202.89453125 77.84765625 C201.09576927 78.89743593 199.29755911 79.94816195 197.5 81 C196.68837402 81.4640625 195.87674805 81.928125 195.04052734 82.40625 C190.29212125 85.21439245 186.99178907 87.89745012 183.8125 92.4375 C183.36053895 95.67655421 183.77301742 97.31905225 184.8125 100.4375 C190.39301956 101.67635439 193.02806128 101.35119216 197.875 98.3515625 C198.99342285 97.67270996 200.1118457 96.99385742 201.26416016 96.29443359 C202.44709596 95.55070357 203.62987271 94.8067205 204.8125 94.0625 C206.03970528 93.31013664 207.26806682 92.55965615 208.49755859 91.81103516 C210.89625944 90.34683092 213.28870924 88.87333012 215.67480469 87.38867188 C255.41413615 62.6768187 297.38401818 41.44668007 340.5625 23.4375 C341.65744278 22.97571854 341.65744278 22.97571854 342.77450562 22.50460815 C344.83975886 21.63694559 346.91065134 20.78468584 348.984375 19.9375 C350.1609668 19.4528125 351.33755859 18.968125 352.54980469 18.46875 C355.89429545 17.41164667 358.33251256 17.07600717 361.8125 17.4375 C365.17948777 19.96274083 366.62928576 22.01763402 368.3125 25.875 C368.93890693 30.33814935 368.48576189 31.82073391 365.8125 35.4375 C359.30616397 40.01897867 352.17421862 43.14651938 344.93496704 46.36727905 C341.25630782 48.00553571 337.58800661 49.66676237 333.91796875 51.32421875 C333.16323776 51.664496 332.40850677 52.00477325 331.63090515 52.35536194 C311.92129843 61.24623338 292.34634001 70.25078174 273.51708984 80.91308594 C270.6535618 82.52708387 267.77571523 84.11306502 264.89453125 85.6953125 C253.42711949 92.01633373 242.12358641 98.57146765 230.9375 105.375 C230.35707947 105.72799164 229.77665894 106.08098328 229.1786499 106.44467163 C226.42202989 108.12399469 223.67160998 109.812733 220.92675781 111.51123047 C218.85507804 112.79263164 216.77626787 114.06257778 214.69042969 115.32080078 C213.71750977 115.91747559 212.74458984 116.51415039 211.7421875 117.12890625 C210.88608887 117.64783447 210.02999023 118.1667627 209.14794922 118.70141602 C206.48360785 120.6819859 204.69701772 122.70973955 202.8125 125.4375 C202.36098959 128.66257435 202.24958853 130.49931421 203.9375 133.3125 C206.73878859 134.99327316 208.56838492 134.76457374 211.8125 134.4375 C214.37489884 133.11383797 216.62452317 131.78670066 219 130.1875 C220.43096001 129.26037102 221.86195086 128.33328964 223.29296875 127.40625 C224.03595215 126.91769531 224.77893555 126.42914062 225.54443359 125.92578125 C247.30809307 111.64469749 269.8537933 98.69009536 292.8125 86.4375 C293.70163086 85.96135254 294.59076172 85.48520508 295.50683594 84.99462891 C358.41887144 51.40291909 358.41887144 51.40291909 371.8125 52.4375 C375.41449656 54.96656142 376.57693405 56.67537487 377.875 60.875 C377.79955207 65.17553179 376.67144503 67.36995264 373.8125 70.4375 C370.48375823 73.0132355 366.94651895 75.21563186 363.375 77.4375 C361.28973467 78.76593881 359.20511298 80.09538843 357.12109375 81.42578125 C356.06647949 82.09432129 355.01186523 82.76286133 353.92529297 83.45166016 C349.22364239 86.45112884 344.57568228 89.52855383 339.9375 92.625 C338.63848755 93.4922168 338.63848755 93.4922168 337.31323242 94.37695312 C318.49864323 106.98769738 300.2052814 120.35422213 282.37792969 134.32324219 C276.85875429 138.64396807 271.26906677 142.85914116 265.63989258 147.03515625 C261.73826554 149.94500861 257.93463607 152.94483238 254.17504883 156.03564453 C228.26818279 177.27323009 198.67771474 189.73409914 164.8125 187.4375 C151.58091347 185.84082089 139.1189758 180.96016268 128.8125 172.4375 C126.8952517 171.20674898 126.8952517 171.20674898 124.8125 171.4375 C121.78080161 173.97566609 120.07080363 175.66258911 118.8125 179.4375 C119.39862061 179.70216064 119.98474121 179.96682129 120.58862305 180.23950195 C122.89200882 181.48033124 124.49905026 182.80995228 126.39453125 184.60546875 C127.07209473 185.24436035 127.7496582 185.88325195 128.44775391 186.54150391 C129.52549072 187.57283447 129.52549072 187.57283447 130.625 188.625 C131.37185059 189.33317871 132.11870117 190.04135742 132.88818359 190.77099609 C138.59922529 196.21174974 144.20514281 201.75371228 149.72583008 207.38745117 C152.48869019 210.19189344 155.26898816 212.85855449 158.3046875 215.3671875 C161.54784232 218.09186961 164.22668025 221.11645382 166.96875 224.3359375 C170.22964258 228.05280234 173.78640292 231.47448158 177.3125 234.9375 C182.11790134 239.65693709 186.76197278 244.42364379 191.15527344 249.53076172 C193.74945364 252.5155212 196.4742359 255.37393174 199.1875 258.25 C203.89079762 263.2709334 208.3343434 268.42089862 212.63671875 273.79296875 C214.942817 276.59589248 217.35401531 279.26753275 219.8125 281.9375 C224.70635516 287.26736683 229.27168762 292.80660389 233.8125 298.4375 C234.78657866 299.62076549 235.76191 300.80300053 236.73828125 301.984375 C244.13368881 310.9603314 251.17940192 320.15904392 258.1171875 329.4921875 C260.97817897 333.33715728 263.88967275 337.13834244 266.82836914 340.92407227 C273.08112648 348.99070793 278.9100702 357.28514795 284.62109375 365.7421875 C287.6571512 370.23300324 290.78825292 374.65069624 293.9375 379.0625 C299.2983936 386.60891489 304.36936553 394.31487261 309.33789062 402.12402344 C310.8898168 404.55880032 312.45216242 406.98667943 314.015625 409.4140625 C326.31973694 428.5660516 338.28505447 447.9296288 349.375 467.8125 C349.9512915 468.84431396 350.52758301 469.87612793 351.12133789 470.93920898 C353.53025119 475.27003378 355.91459261 479.60836359 358.2109375 484 C358.73965454 484.98734131 358.73965454 484.98734131 359.27905273 485.99462891 C360.15880347 487.64175588 361.01627473 489.30073478 361.87109375 490.9609375 C365.83361358 496.01574147 372.14865819 496.87540185 378.21875 497.76171875 C379.68166655 497.98387886 381.14455593 498.20621786 382.60742188 498.42871094 C383.37368896 498.54178589 384.13995605 498.65486084 384.92944336 498.7713623 C399.81296938 500.98002816 414.57615846 503.65347574 429.3125 506.6875 C430.15901123 506.85994232 431.00552246 507.03238464 431.87768555 507.21005249 C434.28433693 507.7017166 436.68931848 508.20072862 439.09375 508.703125 C440.15855591 508.92156822 440.15855591 508.92156822 441.24487305 509.14442444 C444.93931149 509.93015546 448.35565063 510.90986037 451.8125 512.4375 C451.4825 513.4275 451.1525 514.4175 450.8125 515.4375 C393.55146321 516.32410191 336.30155335 516.58951327 279.03419298 516.57279945 C270.77675183 516.57046109 262.51931273 516.57025278 254.26187134 516.57131577 C252.45384874 516.57154561 252.45384874 516.57154561 250.60930043 516.57178011 C248.15408254 516.57210011 245.69886464 516.57242433 243.24364674 516.5727527 C220.42430064 516.57557631 197.60495861 516.57237847 174.78561318 516.56695233 C155.74476864 516.56256117 136.70393034 516.56324614 117.66308594 516.56787109 C-3.76875167 516.59659373 -125.19596624 516.38997509 -299.1875 515.4375 C-299.1875 514.4475 -299.1875 513.4575 -299.1875 512.4375 C-288.74034271 509.64183755 -278.17246886 507.56130666 -267.5625 505.5 C-266.21120499 505.23529404 -266.21120499 505.23529404 -264.83261108 504.96524048 C-252.55538049 502.56387512 -240.28736596 500.33876416 -227.87841797 498.71704102 C-221.70906369 497.8693475 -216.4969376 497.11072358 -212.2253418 492.16625977 C-210.26535614 489.5417528 -208.61913764 486.91980853 -207.0078125 484.0703125 C-206.41621338 483.03189209 -205.82461426 481.99347168 -205.21508789 480.92358398 C-204.58723389 479.81442627 -203.95937988 478.70526855 -203.3125 477.5625 C-201.96345261 475.19962658 -200.6094666 472.83961088 -199.25390625 470.48046875 C-198.91195724 469.88518875 -198.57000824 469.28990875 -198.21769714 468.67658997 C-172.12083773 423.35136127 -142.36052849 379.66895398 -110.1875 338.4375 C-109.76436523 337.89351562 -109.34123047 337.34953125 -108.90527344 336.7890625 C-98.41758659 323.31265661 -87.67297443 310.0471035 -76.57763672 297.06591797 C-75.12215989 295.36096004 -73.67223947 293.6513767 -72.22265625 291.94140625 C-66.56481403 285.28404838 -60.80342858 278.75138284 -54.85546875 272.3515625 C-52.84382668 270.15436633 -50.874109 267.93915316 -48.92138672 265.69067383 C-36.26540663 251.21288038 -22.59252166 237.68308442 -8.98754883 224.10717773 C-6.2690972 221.39448053 -3.55524207 218.67723564 -0.84263706 215.9586935 C1.28068048 213.83174288 3.40639768 211.70720332 5.53282356 209.58336067 C6.53453639 208.58230651 7.53553047 207.58053251 8.53573418 206.5779705 C13.58932812 201.51505146 18.66889653 196.54673515 24.10792542 191.89709473 C26.90608615 189.50108303 29.60473385 186.99708536 32.3125 184.5 C33.116875 183.76040039 33.116875 183.76040039 33.9375 183.00585938 C35.22995474 181.81726261 36.52134799 180.62751177 37.8125 179.4375 C37.49730977 176.36264418 36.76905128 175.39479146 34.51953125 173.18359375 C33.56433594 172.42175781 32.60914063 171.65992188 31.625 170.875 C30.68269531 170.11058594 29.74039062 169.34617187 28.76953125 168.55859375 C23.70763707 164.92767098 19.59429393 162.80573629 13.37109375 163.015625 C6.80130956 164.09888713 0.75382298 167.37388208 -5.0625 170.5 C-31.43944062 184.0747435 -64.47282535 176.92164904 -91.1875 168.4375 C-119.27746436 158.99820463 -144.437964 143.48834175 -165.69677734 122.88134766 C-167.1371267 121.48628934 -168.59369733 120.10803922 -170.05078125 118.73046875 C-177.19294121 111.83075835 -183.26141569 104.37320478 -189.1875 96.4375 C-189.60354492 95.88755371 -190.01958984 95.33760742 -190.44824219 94.77099609 C-209.17312037 69.92081082 -226.10338267 40.68957836 -221.69140625 8.39453125 C-219.77535234 -3.65974018 -216.10291346 -14.14902875 -208.1875 -23.5625 C-207.589375 -24.36945312 -206.99125 -25.17640625 -206.375 -26.0078125 C-191.92149321 -42.88744365 -164.83914538 -49.35997176 -143.625 -51.1875 C-91.96798113 -55.08360806 -38.24064049 -34.21530991 0 0 Z M76.8125 211.4375 C74.99982635 212.53593446 74.99982635 212.53593446 73.23266602 214.27563477 C72.52546417 214.9275882 71.81826233 215.57954163 71.08963013 216.25125122 C67.0455928 220.13388909 63.04934422 224.058474 59.08984375 228.02734375 C58.18553116 228.93069962 57.28121857 229.83405548 56.34950256 230.76478577 C54.44815057 232.66546068 52.54782447 234.56709608 50.64916992 236.47045898 C48.23664139 238.88868392 45.81964919 241.30238958 43.40128231 243.71477413 C41.06585425 246.04568401 38.73427823 248.38043956 36.40234375 250.71484375 C35.54487045 251.57029282 34.68739716 252.42574188 33.80393982 253.30711365 C28.93690977 258.19297888 24.29813433 263.20086711 19.8125 268.4375 C18.35804483 270.04518373 16.90029105 271.64989715 15.4375 273.25 C11.5420343 277.56659713 7.84391782 282.0115113 4.1875 286.53125 C2.09604086 289.09053553 -0.02831015 291.61359896 -2.17529297 294.12597656 C-19.0795781 313.91606891 -34.49105015 334.97225515 -49.1875 356.4375 C-49.69345703 357.17645508 -50.19941406 357.91541016 -50.72070312 358.67675781 C-64.56089245 378.98117259 -77.37590633 399.89227821 -89.1875 421.4375 C-89.785625 422.52546875 -90.38375 423.6134375 -91 424.734375 C-98.10515179 437.70127701 -104.97066856 450.76549074 -111.4375 464.0625 C-111.97439453 465.15788086 -112.51128906 466.25326172 -113.06445312 467.38183594 C-113.56396484 468.4237207 -114.06347656 469.46560547 -114.578125 470.5390625 C-115.2282959 471.88991943 -115.2282959 471.88991943 -115.89160156 473.26806641 C-117.64889638 477.56595664 -118.91545928 481.97559267 -120.1875 486.4375 C-119.55857849 486.39182892 -118.92965698 486.34615784 -118.28167725 486.29910278 C-110.16757855 485.71130536 -102.05265562 485.1355004 -93.9375 484.5625 C-92.63283783 484.4696875 -91.32817566 484.376875 -89.98397827 484.28125 C-76.25768079 483.30967824 -62.53790224 482.38291382 -48.78515625 481.8671875 C-47.76821686 481.8280423 -46.75127747 481.78889709 -45.70352173 481.74856567 C-40.9722801 481.57079095 -36.24184651 481.41711585 -31.50878906 481.29736328 C-29.82485346 481.24038939 -28.1409331 481.18296272 -26.45703125 481.125 C-25.71477798 481.11459686 -24.97252472 481.10419373 -24.20777893 481.09347534 C-17.70120686 480.8409988 -13.47667506 478.65502048 -8.81640625 474.140625 C-8.13449219 473.33109375 -7.45257812 472.5215625 -6.75 471.6875 C-3.99403777 468.49319522 -1.22448138 465.42830213 1.8125 462.5 C6.56016119 457.80841354 10.65140393 452.64706122 14.8125 447.4375 C15.77346279 446.2658787 16.73576183 445.09535243 17.69921875 443.92578125 C24.64920016 435.44294656 30.98924639 426.73042276 36.8125 417.4375 C37.22209961 416.78587891 37.63169922 416.13425781 38.05371094 415.46289062 C58.73408697 382.23867995 71.27730545 343.7523092 75.2421875 304.83203125 C75.61161518 301.41232906 76.27578185 298.5561339 77.8125 295.4375 C78.83789062 301.93164062 78.83789062 301.93164062 79.86328125 308.42578125 C80.00934814 309.32965576 80.15541504 310.23353027 80.3059082 311.16479492 C80.69229248 313.66093049 81.04857513 316.15485468 81.38745117 318.6574707 C82.92228899 329.61935959 85.39216184 339.99404135 88.72631836 350.54467773 C89.49931509 352.99782641 90.24598724 355.45791813 90.99023438 357.91992188 C95.48696448 372.53836182 101.42735662 386.50047604 108.625 400 C109.04040039 400.78117188 109.45580078 401.56234375 109.88378906 402.3671875 C121.2621445 423.40737277 135.76329193 442.75302122 151.8125 460.4375 C152.44397949 461.14132812 153.07545898 461.84515625 153.72607422 462.5703125 C155.70139417 464.76629795 157.69150718 466.94780084 159.6875 469.125 C160.29392334 469.79684326 160.90034668 470.46868652 161.52514648 471.16088867 C162.11239502 471.7922876 162.69964355 472.42368652 163.3046875 473.07421875 C164.06821533 473.90505981 164.06821533 473.90505981 164.84716797 474.75268555 C171.95980617 480.85011613 178.02733656 481.12877764 187.1796875 481.4140625 C189.17896397 481.50000965 191.17824026 481.58596093 193.1775074 481.67212486 C195.97688466 481.78808426 198.77676962 481.88704389 201.57678223 481.98626709 C207.06201246 482.18437745 212.54604067 482.41497779 218.03009796 482.64293671 C219.37875102 482.6986429 220.72744029 482.75347931 222.07616425 482.80744171 C232.41905838 483.22268499 242.720146 483.88453359 253.03097534 484.79629517 C257.64334449 485.20330805 262.17561748 485.55164165 266.8125 485.4375 C268.06942068 483.50033588 268.06942068 483.50033588 267.23022461 481.55932617 C266.89514893 480.79080322 266.56007324 480.02228027 266.21484375 479.23046875 C265.83279785 478.34875 265.45075195 477.46703125 265.05712891 476.55859375 C264.62577637 475.59050781 264.19442383 474.62242187 263.75 473.625 C263.30317871 472.61179687 262.85635742 471.59859375 262.39599609 470.5546875 C228.81435561 395.16407555 183.98668061 323.82218734 128.0703125 262.91015625 C126.16068849 260.81882061 124.28918748 258.70491136 122.4375 256.5625 C113.52423017 246.33201175 104.12888066 236.56725501 94.53637695 226.97607422 C92.71472908 225.15218569 90.9013058 223.32035146 89.08789062 221.48828125 C87.92236176 220.31982676 86.75636455 219.15183921 85.58984375 217.984375 C85.05238022 217.43972595 84.51491669 216.8950769 83.96116638 216.33392334 C81.58870053 213.97600928 80.03224442 212.51074814 76.8125 211.4375 Z " fill="#F7931E" transform="translate(1042.1875,577.5625)"/>
<path d="M0 0 C114.88851992 0 114.88851992 0 135.9375 19.80859375 C149.75543997 34.49015497 152.63638913 50.67542668 152.3125 70.08203125 C151.70014257 86.22020099 144.56603493 98.95295382 133 110 C128.25207855 113.75877115 123.20011204 116.91128097 118 120 C123.91121107 128.63760638 129.86144297 137.24578052 135.875 145.8125 C140.73957941 152.74945506 145.57767204 159.70383793 150.375 166.6875 C150.9407373 167.50774658 151.50647461 168.32799316 152.08935547 169.1730957 C152.60385254 169.92421631 153.11834961 170.67533691 153.6484375 171.44921875 C154.10395996 172.11268311 154.55948242 172.77614746 155.02880859 173.4597168 C156 175 156 175 156 176 C149.77499035 176.34817202 143.55572086 176.60098692 137.32324219 176.76904297 C135.20797997 176.83912112 133.09338825 176.93442981 130.98046875 177.05615234 C113.94663352 178.01229687 113.94663352 178.01229687 109.10601807 174.70657349 C105.44500325 171.00693386 103.2692334 166.63732199 101 162 C100.04457858 160.55544789 99.06374377 159.12674565 98.0390625 157.73046875 C97.23313181 156.55032719 96.42841733 155.36935403 95.625 154.1875 C92.66938029 149.85432047 89.68699807 145.54459648 86.63671875 141.27734375 C86.08226074 140.50044189 85.52780273 139.72354004 84.95654297 138.9230957 C83.87754972 137.41484452 82.79466261 135.90936984 81.70751953 134.40698242 C80.98024658 133.38954956 80.98024658 133.38954956 80.23828125 132.3515625 C79.80555908 131.75166504 79.37283691 131.15176758 78.92700195 130.53369141 C78 129 78 129 78 127 C65.79 127 53.58 127 41 127 C41 143.17 41 159.34 41 176 C27.47 176 13.94 176 0 176 C0 117.92 0 59.84 0 0 Z M41 34 C41 53.8 41 73.6 41 94 C50.343125 94.061875 50.343125 94.061875 59.875 94.125 C61.82003418 94.14320801 63.76506836 94.16141602 65.76904297 94.18017578 C78.71083112 94.25214776 91.84687132 94.29490461 102.078125 85.140625 C107.81266264 78.92419344 110.56622093 72.67412918 110.4375 64.125 C110.42722778 63.0733667 110.42722778 63.0733667 110.41674805 62.00048828 C110.15231538 53.44158522 107.2051566 46.93536718 101 41 C91.89987061 35.25254986 82.75767514 33.67538523 72.15234375 33.8046875 C70.95695984 33.80770874 70.95695984 33.80770874 69.73742676 33.81079102 C66.80405799 33.82113405 63.87077226 33.84905505 60.9375 33.875 C54.358125 33.91625 47.77875 33.9575 41 34 Z " fill="#F7931E" transform="translate(1055,1139)"/>
<path d="M0 0 C43.89 0 87.78 0 133 0 C133 10.89 133 21.78 133 33 C102.64 33 72.28 33 41 33 C41 45.21 41 57.42 41 70 C68.06 70 95.12 70 123 70 C123 80.89 123 91.78 123 103 C95.94 103 68.88 103 41 103 C41 115.87 41 128.74 41 142 C72.68 142 104.36 142 137 142 C137 153.22 137 164.44 137 176 C91.79 176 46.58 176 0 176 C0 117.92 0 59.84 0 0 Z " fill="#F7931E" transform="translate(837,1139)"/>
<path d="M0 0 C13.53 0 27.06 0 41 0 C45.67911001 9.35822002 50.28974565 18.60418552 54.4765625 28.171875 C56.50442363 32.79548313 58.54421795 37.41374653 60.5859375 42.03125 C60.9458075 42.84601807 61.30567749 43.66078613 61.67645264 44.50024414 C65.73804038 53.68766787 69.86920297 62.84354426 74 72 C80.0303716 85.37420019 86.01986196 98.76564358 91.96539307 112.17776489 C98.33102189 126.53496209 104.77326131 140.857229 111.23828125 155.16992188 C111.79360031 156.40084312 111.79360031 156.40084312 112.36013794 157.65663147 C113.05167551 159.1894605 113.74406148 160.72190718 114.43746948 162.25389099 C119 172.37132656 119 172.37132656 119 176 C104.81 176 90.62 176 76 176 C70.36907494 163.79966236 65.16811394 151.40347346 60 139 C33.6 138.67 7.2 138.34 -20 138 C-20.99 140.97 -21.98 143.94 -23 147 C-23.94656436 149.41792951 -24.91851076 151.82610645 -25.91796875 154.22265625 C-26.3977417 155.37773682 -26.87751465 156.53281738 -27.37182617 157.72290039 C-27.97099854 159.15496826 -28.5701709 160.58703613 -29.1875 162.0625 C-31.105625 166.661875 -33.02375 171.26125 -35 176 C-49.19 176 -63.38 176 -78 176 C-76.81404282 172.44212847 -75.72695266 169.19817477 -74.22265625 165.82275391 C-73.70833542 164.66330765 -73.70833542 164.66330765 -73.18362427 163.48043823 C-72.62866776 162.24101974 -72.62866776 162.24101974 -72.0625 160.9765625 C-71.67053436 160.09541779 -71.27856873 159.21427307 -70.87472534 158.306427 C-69.58592095 155.41137451 -68.29301185 152.51817548 -67 149.625 C-66.09373608 147.59155009 -65.18765125 145.55802035 -64.28173828 143.52441406 C-58.14670582 129.76236258 -51.96333064 116.02229973 -45.76412964 102.2890625 C-39.7371592 88.93241234 -33.82757801 75.52705468 -27.95895386 62.10018921 C-21.88411461 48.20914541 -15.69398637 34.37265241 -9.4375 20.5625 C-8.80764694 19.17203461 -8.80764694 19.17203461 -8.16506958 17.753479 C-6.98467822 15.14902963 -5.80328213 12.54504038 -4.62109375 9.94140625 C-4.26784027 9.16329086 -3.91458679 8.38517548 -3.55062866 7.58348083 C-1.12289315 2.24578631 -1.12289315 2.24578631 0 0 Z M20 42 C17.58083699 47.75674066 15.16397389 53.51444011 12.74902344 59.27294922 C11.9312593 61.22209229 11.11292196 63.17099499 10.29394531 65.11962891 C5.93706947 75.48728064 1.61200827 85.86685045 -2.59375 96.296875 C-2.9386145 97.14606506 -3.283479 97.99525513 -3.63879395 98.87017822 C-3.95070679 99.64875183 -4.26261963 100.42732544 -4.58398438 101.22949219 C-4.85867554 101.91211121 -5.1333667 102.59473022 -5.41638184 103.29803467 C-6.10812256 105.01543556 -6.10812256 105.01543556 -6 107 C11.49 107 28.98 107 47 107 C45.05265002 100.50883339 43.10669561 94.47484919 40.453125 88.30859375 C40.11883484 87.51961197 39.78454468 86.73063019 39.44012451 85.91773987 C38.38165365 83.42220784 37.316137 80.92976515 36.25 78.4375 C35.20369797 75.97903057 34.15890554 73.51992407 33.11437988 71.06069946 C32.42706584 69.44258862 31.73916496 67.82472692 31.05065918 66.2071228 C27.6327188 58.1658533 24.30703244 50.08739858 21 42 C20.67 42 20.34 42 20 42 Z " fill="#F7931E" transform="translate(1343,1139)"/>
<path d="M0 0 C43.89 0 87.78 0 133 0 C133 10.89 133 21.78 133 33 C102.64 33 72.28 33 41 33 C41 48.18 41 63.36 41 79 C67.73 79 94.46 79 122 79 C122 89.89 122 100.78 122 112 C95.27 112 68.54 112 41 112 C41 133.12 41 154.24 41 176 C27.47 176 13.94 176 0 176 C0 117.92 0 59.84 0 0 Z " fill="#F7931E" transform="translate(628,1139)"/>
<path d="M0 0 C13.53 0 27.06 0 41 0 C41 46.86 41 93.72 41 142 C70.04 142 99.08 142 129 142 C129 153.22 129 164.44 129 176 C86.43 176 43.86 176 0 176 C0 117.92 0 59.84 0 0 Z " fill="#F7931E" transform="translate(1530,1139)"/>
<path d="M0 0 C9.920625 -0.061875 19.84125 -0.12375 30.0625 -0.1875 C33.16277588 -0.21481201 36.26305176 -0.24212402 39.45727539 -0.27026367 C41.9623984 -0.27903971 44.46752576 -0.28668098 46.97265625 -0.29296875 C48.23460815 -0.30831665 49.49656006 -0.32366455 50.79675293 -0.33947754 C62.6072095 -0.34288407 74.75216094 0.94293154 85.3125 6.625 C85.97564209 6.97127441 86.63878418 7.31754883 87.32202148 7.67431641 C100.89287361 15.05678069 109.62604518 26.27905529 114 41 C117.57641242 53.22201503 116.75720398 70.59922107 111 82 C110.649375 82.77601562 110.29875 83.55203125 109.9375 84.3515625 C103.63943886 97.07889438 92.23858655 106.4288125 78.91040039 111.09008789 C62.56505998 116.20032057 45.94995809 115.34249665 29 115.1875 C14.645 115.0946875 14.645 115.0946875 0 115 C0 77.05 0 39.1 0 0 Z M27 23 C27 45.77 27 68.54 27 92 C54.69572358 93.76006565 54.69572358 93.76006565 78 83 C85.54555154 74.89429834 88.3584349 65.93171343 88.2109375 54.97265625 C87.52108529 45.25085007 84.27938168 37.98994189 77.21875 31.31640625 C62.30176594 19.05880254 46.00181536 23 27 23 Z " fill="#39624A" transform="translate(1240,1395)"/>
<path d="M0 0 C12.06963642 10.30379218 19.58057577 24.04977708 21.15234375 39.8984375 C22.43706831 58.0222304 17.40819978 73.6446562 5.5703125 87.42578125 C-6.84874497 100.12572209 -23.92993327 105.69982873 -41.34765625 106.1484375 C-60.21790729 105.98783962 -76.12495893 99.80594781 -89.84765625 86.8984375 C-101.69690506 72.26902514 -106.34519314 56.73858124 -104.5703125 37.96484375 C-102.5166215 22.92400205 -95.26886546 9.59167361 -83.578125 -0.1875 C-58.66648122 -17.65059793 -24.75043801 -18.26575535 0 0 Z M-59.84765625 14.8984375 C-60.55277344 15.29933594 -61.25789063 15.70023438 -61.984375 16.11328125 C-68.82858882 20.61090748 -73.91039029 27.93504914 -76.28515625 35.7734375 C-78.42317819 47.54456951 -76.97899333 59.2636126 -70.16015625 69.2734375 C-66.69881152 73.46715744 -62.57484201 76.27766612 -57.84765625 78.8984375 C-56.96013672 79.41083984 -56.96013672 79.41083984 -56.0546875 79.93359375 C-48.47134923 83.53274988 -38.31287388 83.11213759 -30.35546875 80.94921875 C-19.37401098 76.60866749 -12.74543311 69.68989896 -7.9609375 58.8984375 C-4.88692624 48.78254229 -5.98060362 37.18878208 -10.84765625 27.8984375 C-15.83305776 19.98843164 -21.99075624 14.11029641 -31.06640625 11.40625 C-40.91795155 9.6075128 -51.02256017 9.82599489 -59.84765625 14.8984375 Z " fill="#39624A" transform="translate(1167.84765625,1406.1015625)"/>
<path d="M0 0 C11.59596469 10.06376515 19.94964063 23.37210913 21.14501953 38.95361328 C22.04731257 57.28262033 18.49757335 72.371908 6.2265625 86.6328125 C-6.44512908 99.78232051 -23.27961245 105.53847531 -41.2734375 106.0703125 C-58.90155521 105.67110602 -75.11542335 100.59757891 -87.9140625 88.03515625 C-101.23658999 73.65176083 -104.67863967 59.32840354 -104.33984375 40.16796875 C-104.06457486 33.51659708 -102.7354147 27.87760316 -100.0234375 21.7578125 C-99.6728125 20.95601562 -99.3221875 20.15421875 -98.9609375 19.328125 C-95.76369223 12.91143136 -91.01565219 7.83684831 -86.0234375 2.7578125 C-85.45753906 2.17902344 -84.89164063 1.60023437 -84.30859375 1.00390625 C-61.93951615 -19.9431762 -23.36342571 -17.3263648 0 0 Z M-68.33984375 21.59375 C-75.78918321 31.16900304 -77.81311396 40.5887123 -76.546875 52.58984375 C-74.93961141 62.31738681 -70.42877489 69.26230661 -63.0234375 75.7578125 C-53.68362425 81.71997732 -44.90792352 82.54557856 -34.0234375 81.7578125 C-24.61184054 79.55884125 -16.71977843 73.7783399 -11.27734375 65.859375 C-5.68287041 56.48296796 -5.67461622 45.10439242 -7.609375 34.56640625 C-10.14399587 26.39283527 -15.4808796 19.61332216 -22.7265625 15.05859375 C-37.87980614 7.32689487 -56.50825683 8.45847471 -68.33984375 21.59375 Z " fill="#39624A" transform="translate(998.0234375,1406.2421875)"/>
<path d="M0 0 C0.99 0.99 1.98 1.98 3 3 C0.36 9.6 -2.28 16.2 -5 23 C-9.10538081 22.17892384 -11.94570218 21.24605923 -15.6875 19.5625 C-27.1291433 14.72288071 -38.92624369 13.00409507 -50.8984375 17.08984375 C-53.70353491 18.30469077 -55.31280671 19.43253195 -57 22 C-58.08140004 25.38838678 -58.25155469 27.24533592 -57.125 30.625 C-50.59124471 37.92743239 -38.27877198 39.10175487 -29.21289062 41.26757812 C-16.38556356 44.43992783 -2.2142373 48.40293779 5.0625 60.375 C8.80287862 68.86877646 8.50000803 80.05248848 5.3125 88.6875 C0.71000523 98.0829376 -6.62251145 103.51195511 -16.32421875 107.296875 C-22.12243935 109.15553805 -27.89344906 110.74600135 -34 111 C-35.06347656 111.0515625 -36.12695312 111.103125 -37.22265625 111.15625 C-54.90821211 111.60257318 -73.28455811 108.30080932 -88 98 C-87.32512263 93.18080529 -85.42034091 89.08116134 -83.4375 84.6875 C-82.9434668 83.57665039 -82.9434668 83.57665039 -82.43945312 82.44335938 C-81.63082877 80.62688438 -80.81602884 78.81316069 -80 77 C-76.35355329 77.83746612 -73.3055983 79.22982926 -69.9375 80.875 C-56.67260529 87.03475623 -41.36991054 90.64258648 -27 86 C-24.10311278 84.14599218 -22.52211292 83.04422584 -21 80 C-20.49904977 77.12693772 -20.49904977 77.12693772 -21 74 C-24.45934679 69.82956526 -27.4927891 68.09314751 -32.625 66.5 C-33.26671143 66.29697266 -33.90842285 66.09394531 -34.56958008 65.88476562 C-39.89359878 64.2374434 -45.28844831 62.87567085 -50.6875 61.5 C-63.45257589 58.2193335 -73.96279849 54.62593875 -82.375 44 C-86.84954208 35.73930694 -87.21696718 26.82006608 -84.875 17.8125 C-81.89944314 9.0387786 -75.47382808 1.83101997 -67.2734375 -2.41015625 C-46.27687023 -11.71483658 -20.50067475 -10.06619958 0 0 Z " fill="#39624A" transform="translate(1486,1401)"/>
<path d="M0 0 C28.71 0 57.42 0 87 0 C87 7.26 87 14.52 87 22 C67.2 22 47.4 22 27 22 C27 31.57 27 41.14 27 51 C44.49 51 61.98 51 80 51 C80 58.26 80 65.52 80 73 C62.51 73 45.02 73 27 73 C27 86.86 27 100.72 27 115 C18.09 115 9.18 115 0 115 C0 77.05 0 39.1 0 0 Z " fill="#39624A" transform="translate(766,1395)"/>
<path d="M0 0 C15.51 0 31.02 0 47 0 C47 6.93 47 13.86 47 21 C31.49 21 15.98 21 0 21 C0 14.07 0 7.14 0 0 Z " fill="#39624A" transform="translate(1540,1441)"/>
<path d="M0 0 C15.51 0 31.02 0 47 0 C47 6.93 47 13.86 47 21 C31.49 21 15.98 21 0 21 C0 14.07 0 7.14 0 0 Z " fill="#39624A" transform="translate(664,1441)"/>
</svg>